<svg xmlns="http://www.w3.org/2000/svg" viewBox="0 0 730 113.2"><defs><style>.cls-1{fill:#111;}</style></defs><title>logo-multiverse-h-fondo-claro</title><g id="Capa_2" data-name="Capa 2"><g id="Capa_10" data-name="Capa 10"><polygon class="cls-1" points="41.6 16.4 32.1 32.8 47.7 32.8 34.8 55.4 0 55.4 31.7 0 95.8 0 86.3 16.4 41.6 16.4"/><polygon class="cls-1" points="130.5 56.5 98.5 112 88.8 95.5 111.3 56.3 101.7 40.3 93.6 54 80.4 31.9 88.4 18.3 98.2 1.2 130.5 56.5"/><polygon class="cls-1" points="96 113.1 32.3 113.2 0 58 19 58 41.8 97 60.6 97 52.5 83.2 78.5 83.2 86.6 97 86.6 97 96 113.1"/><polygon class="cls-1" points="76.8 32.8 50.7 32.8 37.8 55.4 63.6 55.4 76.8 32.8"/><polygon class="cls-1" points="79 34.1 92.3 56.2 79.2 79.3 65.8 56.7 79 34.1"/><polygon class="cls-1" points="37.7 58 63.6 58 76.9 80.6 50.9 80.6 37.7 58"/><path class="cls-1" d="M162.3,29.8a2.1,2.1,0,0,1,.6-1.5,1.9,1.9,0,0,1,1.5-.6h3.4a3,3,0,0,1,2.2.9l24.3,28.6,23.7-28.6a2.3,2.3,0,0,1,1.7-.9h6c.5,0,.8.2.8.7a2.5,2.5,0,0,1-.6,1.1L196,65.1l-.4.4a2.4,2.4,0,0,1-1.3.4,2.6,2.6,0,0,1-1.5-.4l-.4-.4L169.7,38.9V83.5a1.9,1.9,0,0,1-.6,1.5,2.2,2.2,0,0,1-1.5.6h-3.2a2,2,0,0,1-1.5-.6,1.9,1.9,0,0,1-.6-1.5ZM218.2,48a3.1,3.1,0,0,1,.8-1.8l5.5-6.4q.8-1,1.4-1c.3,0,.4.2.4.7v44a1.9,1.9,0,0,1-.6,1.5,2.2,2.2,0,0,1-1.5.6h-3.9a2,2,0,0,1-1.5-.6,2,2,0,0,1-.6-1.5Z"/><path class="cls-1" d="M288,39.9a1.9,1.9,0,0,1,1.9-1.9h4.3a1.9,1.9,0,0,1,1.9,1.9V79.8a5.7,5.7,0,0,1-5.7,5.7h-35a5.7,5.7,0,0,1-5.7-5.7V39.9a1.9,1.9,0,0,1,1.9-1.9h4.3a1.9,1.9,0,0,1,1.9,1.9V78.4H288Z"/><path class="cls-1" d="M315.8,39.9a1.9,1.9,0,0,1,1.9-1.9h4a1.9,1.9,0,0,1,1.9,1.9V78.4h31.5a1.9,1.9,0,0,1,1.9,1.9v3.2a1.9,1.9,0,0,1-1.9,1.9H317.7a1.9,1.9,0,0,1-1.9-1.9Z"/><path class="cls-1" d="M356.2,39.9a1.9,1.9,0,0,1,1.9-1.9h44.5a1.8,1.8,0,0,1,1.4.6,1.9,1.9,0,0,1,.5,1.3v3.2a1.9,1.9,0,0,1-.5,1.3,1.8,1.8,0,0,1-1.4.6H358.1a1.9,1.9,0,0,1-1.9-1.9Zm20.1,12.7a1.7,1.7,0,0,1,1.9-1.9h4.3a1.7,1.7,0,0,1,1.9,1.9v31a1.9,1.9,0,0,1-.5,1.3,1.8,1.8,0,0,1-1.4.6h-4.3a1.8,1.8,0,0,1-1.4-.6,1.9,1.9,0,0,1-.5-1.3Z"/><path class="cls-1" d="M416.3,39.9a1.9,1.9,0,0,1,1.9-1.9h4.3a1.9,1.9,0,0,1,1.9,1.9V83.6a1.9,1.9,0,0,1-1.9,1.9h-4.3a1.9,1.9,0,0,1-1.9-1.9Z"/><path class="cls-1" d="M437.3,39.9a3.6,3.6,0,0,1-.2-.9q0-1,1.1-1h5.9a1.4,1.4,0,0,1,1.2.8l22.9,44.8a3.7,3.7,0,0,1,.2.9c0,.7-.4,1-1.1,1h-5.6a1.2,1.2,0,0,1-1.1-.8Zm34.3,37a.9.9,0,0,1-.7.4.6.6,0,0,1-.7-.4l-2.9-5.2a3.5,3.5,0,0,1-.2-1,1.8,1.8,0,0,1,.2-.8L482.6,39q.3-.8.7-.9h5.5q1.2,0,1.2,1.1l-.2.8Z"/><path class="cls-1" d="M510.5,78.4h34a1.9,1.9,0,0,1,1.9,1.9v3.2a1.9,1.9,0,0,1-1.9,1.9H504.8a1.8,1.8,0,0,1-1.3-.6,1.8,1.8,0,0,1-.6-1.3V39.9a1.9,1.9,0,0,1,.6-1.3,1.8,1.8,0,0,1,1.3-.6H544a1.9,1.9,0,0,1,1.9,1.9v3.2A1.9,1.9,0,0,1,544,45H510.5Zm5.9-19.3a1.9,1.9,0,0,1,1.9-1.9h23a1.9,1.9,0,0,1,1.9,1.9v3.2a1.8,1.8,0,0,1-.6,1.4,1.9,1.9,0,0,1-1.3.5h-23a1.9,1.9,0,0,1-1.3-.5,1.8,1.8,0,0,1-.6-1.4Z"/><path class="cls-1" d="M591,38a14.6,14.6,0,0,1,5.8,1.1,13.8,13.8,0,0,1,4.5,3.1,15.1,15.1,0,0,1,3,4.5,13.9,13.9,0,0,1,1.1,5.6,13.8,13.8,0,0,1-3.1,9.1,14.3,14.3,0,0,1-8,4.9l12.8,17.3a2.2,2.2,0,0,1,.3,1.1q0,.8-.9.8h-6.2l-.7-.2-.6-.6L585.8,66.8h-8.5a1.9,1.9,0,0,1-1.9-1.9V62a1.9,1.9,0,0,1,1.9-1.9h13.4a7.3,7.3,0,0,0,7.6-7.6,7,7,0,0,0-2.2-5.3,7.5,7.5,0,0,0-5.4-2.1H569.4V83.6a1.9,1.9,0,0,1-1.9,1.9h-4a1.9,1.9,0,0,1-1.9-1.9V39.9a1.9,1.9,0,0,1,1.9-1.9Z"/><path class="cls-1" d="M621.2,73.2a1.9,1.9,0,0,1,1.9-1.9h3.7a1.6,1.6,0,0,1,1.8,1.6,7.6,7.6,0,0,0,2.4,4,6.1,6.1,0,0,0,4.3,1.6h19.3a6.1,6.1,0,0,0,4.7-2.1,7,7,0,0,0,1.9-4.9,6.8,6.8,0,0,0-1.9-4.8,6.2,6.2,0,0,0-4.7-2H636a13.4,13.4,0,0,1-5.2-1,13.6,13.6,0,0,1-4.3-2.8,13.2,13.2,0,0,1-2.9-4.2,13.3,13.3,0,0,1,0-10.4,14,14,0,0,1,7.2-7.2A12.8,12.8,0,0,1,636,38h18.3a13.3,13.3,0,0,1,8.8,3.4A14.2,14.2,0,0,1,666,45a13.1,13.1,0,0,1,1.5,4.6,1.7,1.7,0,0,1-1.9,1.9H662a1.7,1.7,0,0,1-1.9-1.6,6.1,6.1,0,0,0-2.1-3.5A5.9,5.9,0,0,0,654,45H635.9a5.9,5.9,0,0,0-4.4,1.8,6.1,6.1,0,0,0-1.8,4.4,6.2,6.2,0,0,0,1.8,4.4,5.8,5.8,0,0,0,4.4,1.9h18.5a14.3,14.3,0,0,1,10,4,13.9,13.9,0,0,1,3,4.4,13.8,13.8,0,0,1,0,10.9,14.6,14.6,0,0,1-3,4.4,14.4,14.4,0,0,1-4.5,3,13.6,13.6,0,0,1-5.5,1.1H635.1a13.9,13.9,0,0,1-9.4-3.6,15,15,0,0,1-3.1-3.9A12,12,0,0,1,621.2,73.2Z"/><path class="cls-1" d="M694.1,78.4h34a1.9,1.9,0,0,1,1.9,1.9v3.2a1.9,1.9,0,0,1-1.9,1.9H688.5a1.8,1.8,0,0,1-1.3-.6,1.8,1.8,0,0,1-.6-1.3V39.9a1.9,1.9,0,0,1,.6-1.3,1.8,1.8,0,0,1,1.3-.6h39.1a1.9,1.9,0,0,1,1.9,1.9v3.2a1.9,1.9,0,0,1-1.9,1.9H694.1Zm5.9-19.3a1.9,1.9,0,0,1,1.9-1.9h23a1.9,1.9,0,0,1,1.9,1.9v3.2a1.8,1.8,0,0,1-.6,1.4,1.9,1.9,0,0,1-1.3.5H702a1.9,1.9,0,0,1-1.3-.5,1.8,1.8,0,0,1-.6-1.4Z"/></g></g></svg>